<svg width="18" height="19" viewBox="0 0 18 19" fill="none" xmlns="http://www.w3.org/2000/svg">
<path d="M17.0311 6.89747L11.755 6.0945L9.39644 1.08736C9.33202 0.950268 9.22604 0.839289 9.09512 0.771831C8.76679 0.602097 8.36781 0.743542 8.20364 1.08736L5.84507 6.0945L0.568934 6.89747C0.423472 6.91923 0.290477 6.99104 0.188653 7.09985C0.0655539 7.23234 -0.00227942 7.41059 5.84883e-05 7.59543C0.00239639 7.78027 0.0747143 7.95657 0.201121 8.08561L4.01848 11.9829L3.11661 17.4862C3.09546 17.6143 3.10899 17.7459 3.15566 17.8663C3.20233 17.9867 3.28028 18.0909 3.38066 18.1673C3.48104 18.2436 3.59985 18.289 3.7236 18.2982C3.84735 18.3075 3.9711 18.2802 4.08082 18.2196L8.80004 15.6213L13.5193 18.2196C13.6481 18.2914 13.7977 18.3153 13.9411 18.2892C14.3027 18.2239 14.5458 17.8649 14.4835 17.4862L13.5816 11.9829L17.399 8.08561C17.5029 7.97898 17.5714 7.83971 17.5922 7.68738C17.6483 7.30657 17.3948 6.95405 17.0311 6.89747Z" fill="#FFC107"/>
</svg>
